<svg width="288" height="110" viewBox="0 0 288 110" fill="none" xmlns="http://www.w3.org/2000/svg">
<path d="M67.6825 65.832C67.8745 66.152 67.9705 66.568 67.9705 67.08C67.9705 67.528 67.7465 67.976 67.2985 68.424C66.9145 68.808 66.4345 69 65.8585 69H43.9705C42.1145 69 40.8025 68.264 40.0345 66.792L28.3225 45.864V66.408C28.3225 67.112 28.0665 67.72 27.5545 68.232C27.0425 68.744 26.4345 69 25.7305 69H7.3945C6.6905 69 6.0825 68.744 5.5705 68.232C5.0585 67.72 4.8025 67.112 4.8025 66.408V4.392C4.8025 3.688 5.0585 3.08 5.5705 2.568C6.0825 2.056 6.6905 1.8 7.3945 1.8H25.7305C26.4345 1.8 27.0425 2.056 27.5545 2.568C28.0665 3.08 28.3225 3.688 28.3225 4.392V23.4L39.1705 3.912C39.8745 2.504 41.1545 1.8 43.0105 1.8H64.2265C64.8025 1.8 65.2825 2.024 65.6665 2.472C66.1145 2.856 66.3385 3.304 66.3385 3.816C66.3385 4.264 66.2425 4.64799 66.0505 4.96799L48.7705 33.96L67.6825 65.832ZM72.3288 54.696C72.3288 46.056 79.3368 40.52 93.3528 38.088L103.529 36.456C103.529 34.536 103.369 33.256 103.049 32.616C102.729 31.912 101.961 31.56 100.745 31.56C99.5928 31.56 98.4408 32.072 97.2888 33.096C96.1368 34.12 95.0488 34.632 94.0248 34.632H77.7048C76.2968 34.632 75.5928 33.96 75.5928 32.616C75.5928 31.208 76.0728 29.736 77.0328 28.2C78.0568 26.6 79.4968 25.032 81.3528 23.496C83.2728 21.96 85.9288 20.68 89.3208 19.656C92.7768 18.632 96.6168 18.12 100.841 18.12C109.417 18.12 115.849 19.912 120.137 23.496C124.425 27.08 126.569 32.2 126.569 38.856V66.408C126.569 67.112 126.313 67.72 125.801 68.232C125.289 68.744 124.681 69 123.977 69H107.177C106.473 69 105.865 68.744 105.353 68.232C104.841 67.72 104.585 67.112 104.585 66.408V63.72C101.577 67.88 97.1928 69.96 91.4328 69.96C85.6728 69.96 81.0328 68.52 77.5128 65.64C74.0568 62.696 72.3288 59.048 72.3288 54.696ZM97.5768 55.752C101.737 55.752 103.817 53.256 103.817 48.264L98.1528 49.512C95.3368 50.152 93.9288 51.336 93.9288 53.064C93.9288 53.832 94.2488 54.472 94.8888 54.984C95.5288 55.496 96.4248 55.752 97.5768 55.752ZM155.42 69H138.236C137.532 69 136.924 68.744 136.412 68.232C135.9 67.72 135.644 67.112 135.644 66.408V3.432C135.644 2.728 135.9 2.12 136.412 1.608C136.924 1.096 137.532 0.839996 138.236 0.839996H155.42C156.124 0.839996 156.732 1.096 157.244 1.608C157.756 2.12 158.012 2.728 158.012 3.432V66.408C158.012 67.112 157.756 67.72 157.244 68.232C156.732 68.744 156.124 69 155.42 69ZM166.173 54.696C166.173 46.056 173.181 40.52 187.197 38.088L197.373 36.456C197.373 34.536 197.213 33.256 196.893 32.616C196.573 31.912 195.805 31.56 194.589 31.56C193.437 31.56 192.285 32.072 191.133 33.096C189.981 34.12 188.893 34.632 187.869 34.632H171.549C170.141 34.632 169.437 33.96 169.437 32.616C169.437 31.208 169.917 29.736 170.877 28.2C171.901 26.6 173.341 25.032 175.197 23.496C177.117 21.96 179.773 20.68 183.165 19.656C186.621 18.632 190.461 18.12 194.685 18.12C203.261 18.12 209.693 19.912 213.981 23.496C218.269 27.08 220.413 32.2 220.413 38.856V66.408C220.413 67.112 220.157 67.72 219.645 68.232C219.133 68.744 218.525 69 217.821 69H201.021C200.317 69 199.709 68.744 199.197 68.232C198.685 67.72 198.429 67.112 198.429 66.408V63.72C195.421 67.88 191.037 69.96 185.277 69.96C179.517 69.96 174.877 68.52 171.357 65.64C167.901 62.696 166.173 59.048 166.173 54.696ZM191.421 55.752C195.581 55.752 197.661 53.256 197.661 48.264L191.997 49.512C189.181 50.152 187.773 51.336 187.773 53.064C187.773 53.832 188.093 54.472 188.733 54.984C189.373 55.496 190.269 55.752 191.421 55.752ZM253.392 40.584V66.408C253.392 67.112 253.136 67.72 252.624 68.232C252.112 68.744 251.504 69 250.8 69H232.08C231.376 69 230.768 68.744 230.256 68.232C229.744 67.72 229.488 67.112 229.488 66.408V3.432C229.488 2.728 229.744 2.12 230.256 1.608C230.768 1.096 231.376 0.839996 232.08 0.839996H250.8C251.504 0.839996 252.112 1.096 252.624 1.608C253.136 2.12 253.392 2.728 253.392 3.432V24.072C257.04 20.104 261.712 18.12 267.408 18.12C273.104 18.12 277.808 19.976 281.52 23.688C285.232 27.4 287.088 32.808 287.088 39.912V66.312C287.088 67.016 286.832 67.624 286.32 68.136C285.808 68.648 285.2 68.904 284.496 68.904H265.68C264.976 68.904 264.368 68.648 263.856 68.136C263.344 67.624 263.088 67.016 263.088 66.312V40.584C263.088 37.064 261.456 35.304 258.192 35.304C254.992 35.304 253.392 37.064 253.392 40.584ZM16.3591 83.464V84.04H21.7831C22.1351 84.04 22.4391 84.168 22.6951 84.424C22.9511 84.68 23.0791 84.984 23.0791 85.336V91.144C23.0791 91.496 22.9511 91.8 22.6951 92.056C22.4391 92.312 22.1351 92.44 21.7831 92.44H16.3591V107.704C16.3591 108.056 16.2311 108.36 15.9751 108.616C15.7191 108.872 15.4151 109 15.0631 109H6.66306C6.31106 109 6.00706 108.872 5.75106 108.616C5.49506 108.36 5.36706 108.056 5.36706 107.704V92.44H2.05506C1.70306 92.44 1.39906 92.312 1.14306 92.056C0.887063 91.8 0.759063 91.496 0.759063 91.144V85.336C0.759063 84.984 0.887063 84.68 1.14306 84.424C1.39906 84.168 1.70306 84.04 2.05506 84.04H5.36706V83.224C5.36706 79.576 6.47106 77.048 8.67906 75.64C10.8871 74.2 13.9431 73.48 17.8471 73.48H22.3111C22.6631 73.48 22.9671 73.608 23.2231 73.864C23.4791 74.12 23.6071 74.424 23.6071 74.776V80.584C23.6071 80.936 23.4791 81.24 23.2231 81.496C22.9671 81.752 22.6631 81.88 22.3111 81.88H18.4231C17.0471 81.88 16.3591 82.408 16.3591 83.464ZM26.2347 98.152V94.888C26.2347 91.24 27.5307 88.44 30.1227 86.488C32.7147 84.536 36.0587 83.56 40.1547 83.56C44.2507 83.56 47.5947 84.536 50.1867 86.488C52.7787 88.44 54.0747 91.24 54.0747 94.888V98.152C54.0747 101.832 52.8267 104.648 50.3307 106.6C47.8347 108.52 44.4427 109.48 40.1547 109.48C35.8667 109.48 32.4747 108.52 29.9787 106.6C27.4827 104.648 26.2347 101.832 26.2347 98.152ZM42.3147 98.536V94.504C42.3147 93.288 42.1547 92.44 41.8347 91.96C41.5147 91.48 40.9547 91.24 40.1547 91.24C39.3547 91.24 38.7947 91.48 38.4747 91.96C38.1547 92.44 37.9947 93.288 37.9947 94.504V98.536C37.9947 99.816 38.1547 100.68 38.4747 101.128C38.7947 101.576 39.3547 101.8 40.1547 101.8C40.9547 101.8 41.5147 101.56 41.8347 101.08C42.1547 100.6 42.3147 99.752 42.3147 98.536ZM57.9334 98.584V85.336C57.9334 84.984 58.0614 84.68 58.3174 84.424C58.5734 84.168 58.8774 84.04 59.2294 84.04H68.3974C68.7494 84.04 69.0534 84.168 69.3094 84.424C69.5654 84.68 69.6934 84.984 69.6934 85.336V98.248C69.6934 100.008 70.4934 100.888 72.0934 100.888C73.6934 100.888 74.4934 100.008 74.4934 98.248V85.336C74.4934 84.984 74.6214 84.68 74.8774 84.424C75.1334 84.168 75.4374 84.04 75.7894 84.04H84.9094C85.2614 84.04 85.5654 84.168 85.8214 84.424C86.0774 84.68 86.2054 84.984 86.2054 85.336V107.704C86.2054 108.056 86.0774 108.36 85.8214 108.616C85.5654 108.872 85.2614 109 84.9094 109H76.5094C76.1574 109 75.8534 108.872 75.5974 108.616C75.3414 108.36 75.2134 108.056 75.2134 107.704V106.12C73.7094 108.36 71.0534 109.48 67.2454 109.48C64.6214 109.48 62.4134 108.568 60.6214 106.744C58.8294 104.888 57.9334 102.168 57.9334 98.584ZM119.258 94.456V107.704C119.258 108.056 119.13 108.36 118.874 108.616C118.618 108.872 118.314 109 117.962 109H108.794C108.442 109 108.138 108.872 107.882 108.616C107.626 108.36 107.498 108.056 107.498 107.704V94.792C107.498 93.032 106.698 92.152 105.098 92.152C103.498 92.152 102.698 93.032 102.698 94.792V107.704C102.698 108.056 102.57 108.36 102.314 108.616C102.058 108.872 101.754 109 101.402 109H92.2819C91.9299 109 91.6259 108.872 91.3699 108.616C91.1139 108.36 90.9859 108.056 90.9859 107.704V85.336C90.9859 84.984 91.1139 84.68 91.3699 84.424C91.6259 84.168 91.9299 84.04 92.2819 84.04H100.682C101.034 84.04 101.338 84.168 101.594 84.424C101.85 84.68 101.978 84.984 101.978 85.336V86.92C102.81 85.928 103.93 85.128 105.338 84.52C106.778 83.88 108.314 83.56 109.946 83.56C112.57 83.56 114.778 84.488 116.57 86.344C118.362 88.168 119.258 90.872 119.258 94.456ZM123.078 98.392V94.6C123.078 91.016 124.038 88.28 125.958 86.392C127.878 84.504 130.214 83.56 132.966 83.56C135.75 83.56 137.974 84.312 139.638 85.816V76.216C139.638 75.864 139.766 75.56 140.022 75.304C140.278 75.048 140.582 74.92 140.934 74.92H149.814C150.166 74.92 150.47 75.048 150.726 75.304C150.982 75.56 151.11 75.864 151.11 76.216V107.704C151.11 108.056 150.982 108.36 150.726 108.616C150.47 108.872 150.166 109 149.814 109H141.654C141.302 109 140.998 108.872 140.742 108.616C140.486 108.36 140.358 108.056 140.358 107.704V106.264C138.694 108.408 136.342 109.48 133.302 109.48C130.262 109.48 127.798 108.584 125.91 106.792C124.022 104.968 123.078 102.168 123.078 98.392ZM139.638 98.104V94.552C139.542 92.952 138.742 92.152 137.238 92.152C135.638 92.152 134.838 93.08 134.838 94.936V98.104C134.838 99.96 135.638 100.888 137.238 100.888C138.838 100.888 139.638 99.96 139.638 98.104ZM155.188 101.848C155.188 97.528 158.692 94.76 165.7 93.544L170.788 92.728C170.788 91.768 170.708 91.128 170.548 90.808C170.388 90.456 170.004 90.28 169.396 90.28C168.82 90.28 168.244 90.536 167.668 91.048C167.092 91.56 166.548 91.816 166.036 91.816H157.876C157.172 91.816 156.82 91.48 156.82 90.808C156.82 90.104 157.06 89.368 157.54 88.6C158.052 87.8 158.772 87.016 159.7 86.248C160.66 85.48 161.988 84.84 163.684 84.328C165.412 83.816 167.332 83.56 169.444 83.56C173.732 83.56 176.948 84.456 179.092 86.248C181.236 88.04 182.308 90.6 182.308 93.928V107.704C182.308 108.056 182.18 108.36 181.924 108.616C181.668 108.872 181.364 109 181.012 109H172.612C172.26 109 171.956 108.872 171.7 108.616C171.444 108.36 171.316 108.056 171.316 107.704V106.36C169.812 108.44 167.62 109.48 164.74 109.48C161.86 109.48 159.54 108.76 157.78 107.32C156.052 105.848 155.188 104.024 155.188 101.848ZM167.812 102.376C169.892 102.376 170.932 101.128 170.932 98.632L168.1 99.256C166.692 99.576 165.988 100.168 165.988 101.032C165.988 101.416 166.148 101.736 166.468 101.992C166.788 102.248 167.236 102.376 167.812 102.376ZM201.245 92.44V97.72C201.245 99.32 201.933 100.12 203.309 100.12H207.677C208.029 100.12 208.333 100.248 208.589 100.504C208.845 100.76 208.973 101.064 208.973 101.416V107.704C208.973 108.056 208.845 108.36 208.589 108.616C208.333 108.872 208.029 109 207.677 109H202.253C194.253 109 190.253 105.56 190.253 98.68V92.44H186.461C186.109 92.44 185.805 92.312 185.549 92.056C185.293 91.8 185.165 91.496 185.165 91.144V85.336C185.165 84.984 185.293 84.68 185.549 84.424C185.805 84.168 186.109 84.04 186.461 84.04H190.253V76.216C190.253 75.864 190.381 75.56 190.637 75.304C190.893 75.048 191.197 74.92 191.549 74.92H199.949C200.301 74.92 200.605 75.048 200.861 75.304C201.117 75.56 201.245 75.864 201.245 76.216V84.04H207.293C207.645 84.04 207.949 84.168 208.205 84.424C208.461 84.68 208.589 84.984 208.589 85.336V91.144C208.589 91.496 208.461 91.8 208.205 92.056C207.949 92.312 207.645 92.44 207.293 92.44H201.245ZM222.233 109H213.641C213.289 109 212.985 108.872 212.729 108.616C212.473 108.36 212.345 108.056 212.345 107.704V85.336C212.345 84.984 212.473 84.68 212.729 84.424C212.985 84.168 213.289 84.04 213.641 84.04H222.233C222.585 84.04 222.889 84.168 223.145 84.424C223.401 84.68 223.529 84.984 223.529 85.336V107.704C223.529 108.056 223.401 108.36 223.145 108.616C222.889 108.872 222.585 109 222.233 109ZM223.289 74.776V80.584C223.289 80.936 223.161 81.24 222.905 81.496C222.649 81.752 222.345 81.88 221.993 81.88H213.881C213.529 81.88 213.225 81.752 212.969 81.496C212.713 81.24 212.585 80.936 212.585 80.584V74.776C212.585 74.424 212.713 74.12 212.969 73.864C213.225 73.608 213.529 73.48 213.881 73.48H221.993C222.345 73.48 222.649 73.608 222.905 73.864C223.161 74.12 223.289 74.424 223.289 74.776ZM227.61 98.152V94.888C227.61 91.24 228.906 88.44 231.498 86.488C234.09 84.536 237.434 83.56 241.53 83.56C245.626 83.56 248.97 84.536 251.562 86.488C254.154 88.44 255.45 91.24 255.45 94.888V98.152C255.45 101.832 254.202 104.648 251.706 106.6C249.21 108.52 245.818 109.48 241.53 109.48C237.242 109.48 233.85 108.52 231.354 106.6C228.858 104.648 227.61 101.832 227.61 98.152ZM243.69 98.536V94.504C243.69 93.288 243.53 92.44 243.21 91.96C242.89 91.48 242.33 91.24 241.53 91.24C240.73 91.24 240.17 91.48 239.85 91.96C239.53 92.44 239.37 93.288 239.37 94.504V98.536C239.37 99.816 239.53 100.68 239.85 101.128C240.17 101.576 240.73 101.8 241.53 101.8C242.33 101.8 242.89 101.56 243.21 101.08C243.53 100.6 243.69 99.752 243.69 98.536ZM287.82 94.456V107.704C287.82 108.056 287.692 108.36 287.436 108.616C287.18 108.872 286.876 109 286.524 109H277.356C277.004 109 276.7 108.872 276.444 108.616C276.188 108.36 276.06 108.056 276.06 107.704V94.792C276.06 93.032 275.26 92.152 273.66 92.152C272.06 92.152 271.26 93.032 271.26 94.792V107.704C271.26 108.056 271.132 108.36 270.876 108.616C270.62 108.872 270.316 109 269.964 109H260.844C260.492 109 260.188 108.872 259.932 108.616C259.676 108.36 259.548 108.056 259.548 107.704V85.336C259.548 84.984 259.676 84.68 259.932 84.424C260.188 84.168 260.492 84.04 260.844 84.04H269.244C269.596 84.04 269.9 84.168 270.156 84.424C270.412 84.68 270.54 84.984 270.54 85.336V86.92C271.372 85.928 272.492 85.128 273.9 84.52C275.34 83.88 276.876 83.56 278.508 83.56C281.132 83.56 283.34 84.488 285.132 86.344C286.924 88.168 287.82 90.872 287.82 94.456Z" fill="#945F14"/>
</svg>
